<?xml version="1.0" standalone="no"?><!DOCTYPE svg PUBLIC "-//W3C//DTD SVG 1.1//EN" "http://www.w3.org/Graphics/SVG/1.1/DTD/svg11.dtd"><svg t="1760967712948" class="icon" viewBox="0 0 1024 1024" version="1.1" xmlns="http://www.w3.org/2000/svg" p-id="15465" xmlns:xlink="http://www.w3.org/1999/xlink" width="200" height="200"><path d="M635.3408 482.2528a29.6448 29.6448 0 0 1 28.9792 29.696c0 40.8064-7.9872 81.152-23.6544 118.6304a299.264 299.264 0 0 1-63.6928 97.0752 301.824 301.824 0 0 1-94.5152 65.536 284.0064 284.0064 0 0 1-86.4256 22.3744v83.3536a29.3888 29.3888 0 0 1-28.416 29.184 29.3376 29.3376 0 0 1-29.5424-29.184V815.616a284.0064 284.0064 0 0 1-86.4256-22.4256 294.4512 294.4512 0 0 1-94.5152-65.4848A311.04 311.04 0 0 1 69.7856 512a29.3888 29.3888 0 0 1 28.416-29.184 29.3376 29.3376 0 0 1 29.5424 29.184 246.1696 246.1696 0 0 0 70.4 173.568c45.4656 46.6944 105.1648 72.3456 168.9088 72.3456 63.2832 0 123.4432-25.6512 168.9088-72.3456a247.04 247.04 0 0 0 70.3488-173.7216 29.2864 29.2864 0 0 1 29.0304-29.5936z m165.9392 0l100.5056 109.1072h-75.1104l1.536 223.9488h-224.256v-53.4016h170.4448l-1.1776-170.5472h-70.656L801.28 482.304zM371.0464 110.592c100.0448 0 181.76 78.6944 181.76 174.848v244.8384c-0.256 96.4608-81.4592 174.592-181.76 174.848H363.008c-100.0448 0-181.76-78.6432-181.76-174.848V285.4912c0-96.256 81.7152-174.848 181.76-174.848h8.0384z m0.512 55.9104l-8.5504 0.3584c-67.9936 0.1536-123.0336 53.1456-123.1872 118.528v244.8896c0.1536 65.3824 55.1936 118.3744 123.1872 118.528h8.0384c33.0752 0 63.8976-12.4416 87.552-35.2256a116.1216 116.1216 0 0 0 36.1472-83.7632V285.0816C494.592 219.648 439.552 166.7072 371.5584 166.5536zM414.72 370.7392a26.7264 26.7264 0 1 1 0 53.4528h-95.232a26.7264 26.7264 0 0 1 0-53.4528h95.232z m508.2624-260.096c20.3264 0.3072 33.6896 13.2096 34.0992 28.5184 0.3584 14.336-10.8544 25.856-28.5696 28.1088l-5.5296 0.3584h-98.4576a28.4672 28.4672 0 0 1 1.4848 9.0624v192.3072a28.4672 28.4672 0 0 1-56.9856 0V176.64c0-3.1744 0.512-6.1952 1.4848-9.0624h-93.3376c-18.7392 0-30.976-9.984-33.1776-23.3984l-0.3584-4.608c0-14.336 10.24-26.3168 27.2384-28.5696l5.888-0.4096h246.272zM414.72 259.2768a26.7264 26.7264 0 0 1 0 53.4528h-95.232a26.7264 26.7264 0 1 1 0-53.4528h95.232z" fill="#1296db" p-id="15466"></path></svg>